<svg width="368" height="145" viewBox="0 0 368 145" fill="none" xmlns="http://www.w3.org/2000/svg">
<path d="M64.8004 142.4V112.4H0.000390589V94L62.6004 2.40001H87.0004V92.2H113V112.4H87.0004V142.4H64.8004ZM24.6004 92.2H64.8004V33.2L24.6004 92.2ZM183.386 144.8C172.453 144.8 162.72 141.733 154.186 135.6C145.653 129.333 138.92 120.8 133.986 110C129.186 99.0667 126.786 86.5334 126.786 72.4C126.786 58.2667 129.186 45.8 133.986 35C138.92 24.0667 145.586 15.5334 153.986 9.40002C162.52 3.13335 172.32 2.19345e-05 183.386 2.19345e-05C194.453 2.19345e-05 204.253 3.13335 212.786 9.40002C221.32 15.5334 227.986 24.0667 232.786 35C237.72 45.8 240.186 58.2667 240.186 72.4C240.186 86.5334 237.72 99.0667 232.786 110C227.986 120.8 221.32 129.333 212.786 135.6C204.386 141.733 194.586 144.8 183.386 144.8ZM183.586 123.8C190.12 123.8 195.92 121.6 200.986 117.2C206.186 112.8 210.186 106.733 212.986 99C215.92 91.2667 217.386 82.4 217.386 72.4C217.386 62.4 215.92 53.5334 212.986 45.8C210.186 37.9333 206.186 31.8 200.986 27.4C195.92 23 190.053 20.8 183.386 20.8C176.72 20.8 170.853 23 165.786 27.4C160.72 31.8 156.72 37.8667 153.786 45.6C150.986 53.3334 149.586 62.2667 149.586 72.4C149.586 82.4 150.986 91.2667 153.786 99C156.72 106.733 160.72 112.8 165.786 117.2C170.986 121.6 176.92 123.8 183.586 123.8ZM319.293 142.4V112.4H254.493V94L317.093 2.40001H341.493V92.2H367.493V112.4H341.493V142.4H319.293ZM279.093 92.2H319.293V33.2L279.093 92.2Z" fill="#309689"/>
</svg>
